<svg width="80" height="80" viewBox="0 0 59 60" fill="none" xmlns="http://www.w3.org/2000/svg">
<path fill-rule="evenodd" clip-rule="evenodd" d="M20.8957 22.5C25.6489 22.5 29.4998 18.5837 29.4998 13.75C29.4998 8.91625 25.6489 5 20.8957 5C16.1425 5 12.2915 8.91625 12.2915 13.75C12.2915 18.5837 16.1425 22.5 20.8957 22.5ZM27.0415 13.75C27.0415 17.2037 24.2919 20 20.8957 20C17.4995 20 14.7498 17.2037 14.7498 13.75C14.7498 10.2962 17.4995 7.5 20.8957 7.5C24.2919 7.5 27.0415 10.2962 27.0415 13.75Z" fill="white"/>
<path d="M7.37484 31.6663C7.37484 31.0763 7.69196 30.4263 8.53763 29.7213C9.3833 29.0163 10.6174 28.38 12.0875 27.8487C15.0227 26.7862 18.5701 26.25 20.8957 26.25C23.2213 26.25 26.7686 26.785 29.7039 27.8487C30.1169 27.9987 30.5098 28.1558 30.8826 28.32C31.6464 27.7283 32.4584 27.2088 33.3189 26.7613C32.4262 26.2583 31.4927 25.8342 30.5286 25.4938C27.3205 24.3313 23.4929 23.75 20.8957 23.75C18.2984 23.75 14.4708 24.3313 11.2627 25.4938C9.65986 26.0738 8.13077 26.8275 6.97905 27.7888C5.82609 28.7488 4.9165 30.0375 4.9165 31.6663V38.75H24.7712C24.9023 37.8917 25.0966 37.0583 25.3539 36.25H7.37484V31.6663Z" fill="white"/>
<path fill-rule="evenodd" clip-rule="evenodd" d="M36.8748 28.75C36.8748 28.4185 37.0043 28.1005 37.2349 27.8661C37.4654 27.6317 37.778 27.5 38.104 27.5H43.0207C43.3467 27.5 43.6593 27.6317 43.8898 27.8661C44.1203 28.1005 44.2498 28.4185 44.2498 28.75C44.2498 29.0815 44.1203 29.3995 43.8898 29.6339C43.6593 29.8683 43.3467 30 43.0207 30H41.7915V32.5875C43.2148 32.797 44.5637 33.3661 45.715 34.2425L47.4285 32.5L47.0683 32.1338C46.8444 31.898 46.7205 31.5822 46.7233 31.2545C46.7261 30.9268 46.8554 30.6132 47.0833 30.3815C47.3112 30.1497 47.6195 30.0183 47.9418 30.0154C48.264 30.0126 48.5745 30.1386 48.8064 30.3662L51.2647 32.8662C51.4886 33.102 51.6125 33.4178 51.6097 33.7455C51.6069 34.0732 51.4776 34.3868 51.2497 34.6185C51.0218 34.8503 50.7135 34.9817 50.3912 34.9846C50.069 34.9874 49.7585 34.8614 49.5266 34.6338L49.1665 34.2675L47.453 36.01C48.3149 37.1808 48.8744 38.5526 49.0805 40H51.6248V38.75C51.6248 38.4185 51.7543 38.1005 51.9848 37.8661C52.2154 37.6317 52.528 37.5 52.854 37.5C53.18 37.5 53.4926 37.6317 53.7232 37.8661C53.9537 38.1005 54.0832 38.4185 54.0832 38.75V43.75C54.0832 44.0815 53.9537 44.3995 53.7232 44.6339C53.4926 44.8683 53.18 45 52.854 45C52.528 45 52.2154 44.8683 51.9848 44.6339C51.7543 44.3995 51.6248 44.0815 51.6248 43.75V42.5H49.0805C48.9175 43.6465 48.5323 44.7486 47.9472 45.7425L50.3957 48.2325L50.7558 47.8662C50.9876 47.6386 51.2981 47.5126 51.6204 47.5154C51.9427 47.5183 52.251 47.6497 52.4789 47.8815C52.7068 48.1132 52.8361 48.4268 52.8389 48.7545C52.8417 49.0822 52.7178 49.398 52.4939 49.6338L50.0355 52.1338C49.8037 52.3614 49.4932 52.4874 49.1709 52.4846C48.8486 52.4817 48.5403 52.3503 48.3125 52.1185C48.0846 51.8868 47.9553 51.5732 47.9525 51.2455C47.9497 50.9178 48.0736 50.602 48.2975 50.3662L48.6576 50L46.3861 47.6912C45.1096 48.8853 43.5081 49.6591 41.7915 49.9113V52.5H43.0207C43.3467 52.5 43.6593 52.6317 43.8898 52.8661C44.1203 53.1005 44.2498 53.4185 44.2498 53.75C44.2498 54.0815 44.1203 54.3995 43.8898 54.6339C43.6593 54.8683 43.3467 55 43.0207 55H38.104C37.778 55 37.4654 54.8683 37.2349 54.6339C37.0043 54.3995 36.8748 54.0815 36.8748 53.75C36.8748 53.4185 37.0043 53.1005 37.2349 52.8661C37.4654 52.6317 37.778 52.5 38.104 52.5H39.3332V49.9125C37.9099 49.703 36.5609 49.1339 35.4097 48.2575L33.6962 50L34.0564 50.3662C34.2803 50.602 34.4042 50.9178 34.4014 51.2455C34.3986 51.5732 34.2693 51.8868 34.0414 52.1185C33.8135 52.3503 33.5052 52.4817 33.1829 52.4846C32.8606 52.4874 32.5501 52.3614 32.3183 52.1338L29.86 49.6338C29.6361 49.398 29.5122 49.0822 29.515 48.7545C29.5178 48.4268 29.6471 48.1132 29.875 47.8815C30.1029 47.6497 30.4111 47.5183 30.7334 47.5154C31.0557 47.5126 31.3662 47.6386 31.598 47.8662L31.9582 48.2325L33.6716 46.49C32.8098 45.3192 32.2503 43.9474 32.0442 42.5H29.4998V43.75C29.4998 44.0815 29.3703 44.3995 29.1398 44.6339C28.9093 44.8683 28.5967 45 28.2707 45C27.9447 45 27.632 44.8683 27.4015 44.6339C27.171 44.3995 27.0415 44.0815 27.0415 43.75V38.75C27.0415 38.4185 27.171 38.1005 27.4015 37.8661C27.632 37.6317 27.9447 37.5 28.2707 37.5C28.5967 37.5 28.9093 37.6317 29.1398 37.8661C29.3703 38.1005 29.4998 38.4185 29.4998 38.75V40H32.0442C32.2503 38.5526 32.8098 37.1808 33.6716 36.01L31.9582 34.2675L31.598 34.6338C31.3662 34.8614 31.0557 34.9874 30.7334 34.9846C30.4111 34.9817 30.1029 34.8503 29.875 34.6185C29.6471 34.3868 29.5178 34.0732 29.515 33.7455C29.5122 33.4178 29.6361 33.102 29.86 32.8662L32.3183 30.3662C32.5501 30.1386 32.8606 30.0126 33.1829 30.0154C33.5052 30.0183 33.8135 30.1497 34.0414 30.3815C34.2693 30.6132 34.3986 30.9268 34.4014 31.2545C34.4042 31.5822 34.2803 31.898 34.0564 32.1338L33.6962 32.5L35.4097 34.2425C36.5609 33.3661 37.9099 32.797 39.3332 32.5875V30H38.104C37.778 30 37.4654 29.8683 37.2349 29.6339C37.0043 29.3995 36.8748 29.0815 36.8748 28.75ZM34.4165 41.25C34.4165 42.9076 35.064 44.4973 36.2166 45.6694C37.3691 46.8415 38.9324 47.5 40.5623 47.5C42.1923 47.5 43.7555 46.8415 44.9081 45.6694C46.0607 44.4973 46.7082 42.9076 46.7082 41.25C46.7082 39.5924 46.0607 38.0027 44.9081 36.8306C43.7555 35.6585 42.1923 35 40.5623 35C38.9324 35 37.3691 35.6585 36.2166 36.8306C35.064 38.0027 34.4165 39.5924 34.4165 41.25Z" fill="white"/>
</svg>
