<svg width="60" height="60" viewBox="0 0 60 60" fill="none" xmlns="http://www.w3.org/2000/svg">
<path d="M49.6364 17.7778V46.1333C49.6364 49.3844 47.3018 52 44.4 52H15.6C12.6982 52 10.3636 49.3844 10.3636 46.1333V17.7778M21.2727 27.5556H38.7273M9.49091 8H50.5091C51.4349 8 52.3229 8.41206 52.9775 9.14554C53.6322 9.87901 54 10.8738 54 11.9111V13.8667C54 14.3803 53.9097 14.8889 53.7343 15.3634C53.5588 15.8379 53.3017 16.2691 52.9775 16.6322C52.6534 16.9954 52.2685 17.2835 51.845 17.4801C51.4215 17.6766 50.9675 17.7778 50.5091 17.7778H9.49091C8.56506 17.7778 7.67714 17.3657 7.02246 16.6322C6.36779 15.8988 6 14.904 6 13.8667V11.9111C6 11.3975 6.0903 10.8889 6.26573 10.4144C6.44116 9.93988 6.6983 9.50872 7.02246 9.14554C7.67714 8.41206 8.56506 8 9.49091 8Z" stroke="white" stroke-width="2.5" stroke-miterlimit="10" stroke-linecap="round" stroke-linejoin="round"/>
</svg>
