<svg width="60" height="60" viewBox="0 0 60 60" fill="none" xmlns="http://www.w3.org/2000/svg">
<path d="M43.4275 49.5675L50.5275 42.5775L48.9625 41.01L43.4275 46.4675L41.04 44.03L39.4725 45.61L43.4275 49.5675ZM16.925 21.8275H43.08V19.3275H16.9225L16.925 21.8275ZM45 55.29C42.215 55.29 39.8525 54.3192 37.9125 52.3775C35.9708 50.4375 35 48.075 35 45.29C35 42.505 35.9708 40.1417 37.9125 38.2C39.8542 36.2583 42.2167 35.2883 45 35.29C47.7833 35.2917 50.1467 36.2617 52.09 38.2C54.0333 40.1383 55.0033 42.5017 55 45.29C55 48.0733 54.03 50.4358 52.09 52.3775C50.1467 54.3192 47.7833 55.29 45 55.29ZM10 51.9225V14.04C10 12.92 10.3933 11.9667 11.18 11.18C11.9667 10.3933 12.92 10 14.04 10H45.9625C47.0792 10 48.0317 10.3933 48.82 11.18C49.6067 11.9667 50 12.92 50 14.04V28.9C49.5933 28.75 49.19 28.6217 48.79 28.515C48.3883 28.4083 47.9583 28.325 47.5 28.265V14.04C47.5 13.655 47.34 13.3017 47.02 12.98C46.7 12.6583 46.3467 12.4983 45.96 12.5H14.04C13.655 12.5 13.3017 12.66 12.98 12.98C12.6583 13.3 12.4983 13.6533 12.5 14.04V47.625H28.36C28.4733 48.3083 28.62 48.9767 28.8 49.63C28.9817 50.2833 29.2342 50.9067 29.5575 51.5L29.4725 51.585L26.635 49.52L23.27 51.9225L19.905 49.52L16.54 51.9225L13.1725 49.52L10 51.9225ZM16.925 40.6725H28.6975C28.7908 40.2142 28.9058 39.785 29.0425 39.385C29.1792 38.985 29.3392 38.5808 29.5225 38.1725H16.925V40.6725ZM16.925 31.25H35.2C36.0167 30.605 36.8917 30.0675 37.825 29.6375C38.7583 29.2058 39.7558 28.91 40.8175 28.75H16.9225L16.925 31.25Z" fill="white"/>
</svg>
